<svg xmlns="http://www.w3.org/2000/svg" width="500" height="483" viewBox="0 0 500 483" version="1.1"><path d="M 433.245 135.079 L 433.500 241.500 441 241.579 L 448.500 241.657 441.750 241.283 L 435 240.909 434.969 200.204 C 434.925 143.178, 433.880 29.585, 433.395 29.079 C 433.173 28.847, 433.105 76.547, 433.245 135.079 M 116.774 64.250 L 116.500 81.500 93.750 81.769 L 71 82.038 71 84.519 L 71 87 114.214 87 C 155.369 87, 157.345 86.917, 155.683 85.250 C 154.384 83.948, 151.706 83.372, 145.219 83 L 136.500 82.500 136.500 69 L 136.500 55.500 152.250 55.225 C 165.072 55, 168 54.685, 168 53.527 C 168 52.516, 166.481 52.017, 162.750 51.802 C 158.343 51.549, 157.453 51.172, 157.207 49.454 C 156.951 47.661, 156.107 47.378, 150.375 47.167 C 146.354 47.018, 144.066 47.298, 144.434 47.894 C 144.763 48.426, 144.516 49.181, 143.885 49.571 C 143.253 49.962, 142.324 49.543, 141.819 48.640 C 141.048 47.263, 138.989 47, 128.974 47 L 117.047 47 116.774 64.250 M 275.393 55.582 C 275.727 56.452, 276 63.652, 276 71.582 L 276 86 285.500 86 L 295 86 295 73.125 C 295 66.044, 295.281 58.844, 295.625 57.125 L 296.250 54 285.518 54 C 276.143 54, 274.863 54.200, 275.393 55.582 M 69.750 67.745 C 74.837 67.927, 83.162 67.927, 88.250 67.745 C 93.337 67.564, 89.175 67.415, 79 67.415 C 68.825 67.415, 64.662 67.564, 69.750 67.745 M 158 92.397 C 158 96.843, 158.379 97.505, 164.817 104.302 C 174.755 114.796, 209.090 148.398, 223.234 161.474 C 226.388 164.390, 230.101 167.059, 231.484 167.407 C 233.938 168.023, 233.999 167.908, 233.948 162.769 L 233.895 157.500 222.198 147.092 C 215.764 141.368, 201.229 127.732, 189.898 116.790 C 178.567 105.848, 168.217 96.178, 166.898 95.301 C 165.579 94.425, 164.043 93.211, 163.484 92.604 C 162.925 91.997, 161.462 90.643, 160.234 89.595 L 158 87.690 158 92.397 M 276 109.500 L 276 120 285 120 L 294 120 294 109.500 L 294 99 285 99 L 276 99 276 109.500 M 305 109.460 L 305 120 313.535 120 L 322.070 120 321.785 109.750 L 321.500 99.500 313.250 99.210 L 305 98.919 305 109.460 M 334 109.460 L 334 120 342.535 120 L 351.070 120 350.785 109.750 L 350.500 99.500 342.250 99.210 L 334 98.919 334 109.460 M 52.500 116 C 52.840 116.550, 56.943 117, 61.618 117 C 67.030 117, 69.894 116.637, 69.500 116 C 69.160 115.450, 65.057 115, 60.382 115 C 54.970 115, 52.106 115.363, 52.500 116 M 92 140.500 C 92 162.500, 92.206 166, 93.500 166 C 94.794 166, 95 162.500, 95 140.500 C 95 118.500, 94.794 115, 93.500 115 C 92.206 115, 92 118.500, 92 140.500 M 116 158 L 116 200 175.500 200 L 235 200 235 209 L 235 218 249.500 218 L 264 218 264 209 L 264 200 323.500 200 L 383 200 383 193 L 383 186 372.500 186 L 362 186 362 162 L 362 138 307 138 L 252 138 252 161.500 L 252 185 236.607 185 L 221.213 185 186.357 150.546 L 151.500 116.092 133.750 116.046 L 116 116 116 158 M 92 191 C 92 198.333, 92.278 200, 93.500 200 C 94.722 200, 95 198.333, 95 191 C 95 183.667, 94.722 182, 93.500 182 C 92.278 182, 92 183.667, 92 191 M 132.667 218.667 C 132.300 219.033, 132 235.247, 132 254.698 C 132 287.438, 132.130 290.116, 133.750 290.781 C 134.713 291.177, 153.500 291.500, 175.500 291.500 L 215.500 291.500 215.762 254.750 L 216.025 218 174.679 218 C 151.939 218, 133.033 218.300, 132.667 218.667 M 282.238 255.250 L 282.500 291.500 324.500 291.500 L 366.500 291.500 366.762 255.250 L 367.025 219 324.500 219 L 281.975 219 282.238 255.250 M 234.762 272.750 L 234.500 310.500 174.750 310.758 L 115 311.016 115 296.008 L 115 281 106.530 281 L 98.060 281 97.780 268.250 L 97.500 255.500 84.250 255.221 L 71 254.942 71 285.952 L 71 316.962 93.250 317.231 L 115.500 317.500 116 358 L 116.500 398.500 250.250 398.754 L 384 399.007 384 358.022 L 384 317.038 406.750 316.769 L 429.500 316.500 429.764 286.400 L 430.029 256.301 416.859 255.605 C 409.616 255.223, 403.325 255.275, 402.879 255.721 C 402.433 256.167, 401.940 261.925, 401.784 268.516 L 401.500 280.500 393.750 280.792 L 386 281.084 386 295.542 L 386 310 324.500 310 L 263 310 263 272.500 L 263 235 249.012 235 L 235.024 235 234.762 272.750 M 156.226 254.250 L 156.500 271.500 174 271.500 L 191.500 271.500 191.774 254.250 L 192.047 237 174 237 L 155.953 237 156.226 254.250 M 307.226 254.250 L 307.500 271.500 324.500 271.500 L 341.500 271.500 341.500 261 L 341.500 250.500 333.750 250.208 L 326 249.916 326 244.958 L 326 240 333.500 240 C 339.500 240, 341 239.700, 341 238.500 C 341 237.225, 338.442 237, 323.976 237 L 306.953 237 307.226 254.250 M 178 245.500 L 178 251 183.500 251 L 189 251 189 245.500 L 189 240 183.500 240 L 178 240 178 245.500 M 57.280 241.736 C 59.909 241.943, 63.959 241.940, 66.280 241.731 C 68.601 241.521, 66.450 241.352, 61.500 241.355 C 56.550 241.358, 54.651 241.530, 57.280 241.736 M 424.750 334.769 L 402 335.038 402.070 356.769 C 402.113 369.837, 402.483 377.703, 403 376.500 C 403.473 375.400, 403.891 366.063, 403.930 355.750 L 404 337 416.250 336.750 C 422.988 336.613, 432.624 336.632, 437.665 336.793 C 443.597 336.982, 447.071 336.694, 447.515 335.976 C 447.892 335.366, 448.043 334.784, 447.850 334.683 C 447.658 334.583, 437.262 334.621, 424.750 334.769 M 52.500 336 C 52.882 336.619, 61.697 337, 75.618 337 C 90.363 337, 97.905 336.655, 97.500 336 C 97.118 335.381, 88.303 335, 74.382 335 C 59.637 335, 52.095 335.345, 52.500 336 M 280.481 353.197 C 279.633 358.313, 278.441 360.772, 275.603 363.263 C 267.571 370.311, 252.824 369.179, 247.050 361.070 C 245.811 359.330, 244.559 356.127, 244.267 353.953 C 243.756 350.144, 243.600 350, 239.975 350 C 235.596 350, 234.649 351.488, 235.592 356.884 C 236.476 361.945, 240.421 368.457, 244.477 371.550 C 251.351 376.793, 262.871 378.415, 272.637 375.515 C 281.328 372.934, 288.881 363.104, 289.303 353.824 L 289.500 349.500 285.347 349.197 L 281.194 348.894 280.481 353.197 M 215 425.500 L 215 432 219.377 432 C 223.676 432, 223.792 432.089, 225.905 437 L 228.056 442 234.559 442 C 242.197 442, 242.849 442.784, 241.339 450.154 L 240.346 455 249.290 455 C 258.121 455, 258.224 454.972, 257.479 452.750 C 257.064 451.512, 256.675 448.700, 256.613 446.500 L 256.500 442.500 264.750 442.210 L 273 441.919 273 437.012 L 273 432.105 278.250 431.802 L 283.500 431.500 283.798 425.250 L 284.095 419 249.548 419 L 215 419 215 425.500" stroke="none" fill="#fadcaa" fill-rule="evenodd"/><path d="M 97 48.596 L 97 68.192 75.750 67.979 C 64.063 67.862, 53.938 67.818, 53.250 67.883 C 52.289 67.973, 52 73.421, 52 91.461 L 52 114.922 60.750 115.211 L 69.500 115.500 69.757 178.750 L 70.015 242 61.007 242 L 52 242 52 288.481 L 52 334.962 74.545 335.231 L 97.090 335.500 97.024 375.530 C 96.973 406.424, 97.248 415.952, 98.229 417.276 C 99.385 418.837, 102.952 419.014, 137.717 419.246 L 175.934 419.500 158.967 436.684 C 149.635 446.135, 142 454.122, 142 454.434 C 142 454.745, 146.811 455, 152.691 455 L 163.381 455 179.691 438.290 L 196 421.579 196 433.290 L 196 445 202.401 445 C 209.657 445, 216.718 447.728, 221.205 452.265 C 223.707 454.796, 224.512 455, 231.986 455 C 241.117 455, 241.371 454.785, 241.453 447 L 241.500 442.500 234.758 442.204 L 228.016 441.909 225.885 436.954 C 223.794 432.094, 223.670 432, 219.377 432 L 215 432 215 425.500 L 215 419 249.548 419 L 284.095 419 283.798 425.250 L 283.500 431.500 278.250 431.802 L 273 432.105 273 437.012 L 273 441.919 264.750 442.210 C 256.854 442.488, 256.485 442.605, 256.155 444.946 C 255.965 446.292, 256.374 449.104, 257.065 451.196 L 258.320 455 265.160 455 C 270.573 455, 272 454.687, 272 453.500 C 272 452.333, 273.333 452, 278 452 C 283.983 452, 284 451.992, 284 449.038 L 284 446.075 293.250 445.788 L 302.500 445.500 303 433.594 L 303.500 421.688 319.505 438.381 L 335.509 455.073 346.492 454.786 L 357.475 454.500 339.684 436.750 L 321.892 419 361.879 419 C 401.599 419, 401.870 418.986, 402.531 416.904 C 402.897 415.751, 402.865 396.859, 402.461 374.923 L 401.727 335.038 424.613 334.769 L 447.500 334.500 447.760 288.294 L 448.020 242.088 440.760 241.794 L 433.500 241.500 433.245 135.250 L 432.991 29 264.995 29 L 97 29 97 48.596 M 116.774 64.250 L 116.500 81.500 93.750 81.769 L 71 82.038 71 84.519 L 71 87 114.214 87 C 155.369 87, 157.345 86.917, 155.683 85.250 C 154.384 83.948, 151.706 83.372, 145.219 83 L 136.500 82.500 136.500 69 L 136.500 55.500 152.250 55.225 C 165.072 55, 168 54.685, 168 53.527 C 168 52.516, 166.481 52.017, 162.750 51.802 C 158.343 51.549, 157.453 51.172, 157.207 49.454 C 156.951 47.661, 156.107 47.378, 150.375 47.167 C 146.354 47.018, 144.066 47.298, 144.434 47.894 C 144.763 48.426, 144.516 49.181, 143.885 49.571 C 143.253 49.962, 142.324 49.543, 141.819 48.640 C 141.048 47.263, 138.989 47, 128.974 47 L 117.047 47 116.774 64.250 M 275.393 55.582 C 275.727 56.452, 276 63.652, 276 71.582 L 276 86 285.500 86 L 295 86 295 73.125 C 295 66.044, 295.281 58.844, 295.625 57.125 L 296.250 54 285.518 54 C 276.143 54, 274.863 54.200, 275.393 55.582 M 158 92.397 C 158 96.843, 158.379 97.505, 164.817 104.302 C 174.755 114.796, 209.090 148.398, 223.234 161.474 C 226.388 164.390, 230.101 167.059, 231.484 167.407 C 233.938 168.023, 233.999 167.908, 233.948 162.769 L 233.895 157.500 222.198 147.092 C 215.764 141.368, 201.229 127.732, 189.898 116.790 C 178.567 105.848, 168.217 96.178, 166.898 95.301 C 165.579 94.425, 164.043 93.211, 163.484 92.604 C 162.925 91.997, 161.462 90.643, 160.234 89.595 L 158 87.690 158 92.397 M 276 109.500 L 276 120 285 120 L 294 120 294 109.500 L 294 99 285 99 L 276 99 276 109.500 M 305 109.460 L 305 120 313.535 120 L 322.070 120 321.785 109.750 L 321.500 99.500 313.250 99.210 L 305 98.919 305 109.460 M 334 109.460 L 334 120 342.535 120 L 351.070 120 350.785 109.750 L 350.500 99.500 342.250 99.210 L 334 98.919 334 109.460 M 92 140.500 C 92 162.500, 92.206 166, 93.500 166 C 94.794 166, 95 162.500, 95 140.500 C 95 118.500, 94.794 115, 93.500 115 C 92.206 115, 92 118.500, 92 140.500 M 116 158 L 116 200 175.500 200 L 235 200 235 209 L 235 218 249.500 218 L 264 218 264 209 L 264 200 323.500 200 L 383 200 383 193 L 383 186 372.500 186 L 362 186 362 162 L 362 138 307 138 L 252 138 252 161.500 L 252 185 236.607 185 L 221.213 185 186.357 150.546 L 151.500 116.092 133.750 116.046 L 116 116 116 158 M 92 191 C 92 198.333, 92.278 200, 93.500 200 C 94.722 200, 95 198.333, 95 191 C 95 183.667, 94.722 182, 93.500 182 C 92.278 182, 92 183.667, 92 191 M 132.667 218.667 C 132.300 219.033, 132 235.247, 132 254.698 C 132 287.438, 132.130 290.116, 133.750 290.781 C 134.713 291.177, 153.500 291.500, 175.500 291.500 L 215.500 291.500 215.762 254.750 L 216.025 218 174.679 218 C 151.939 218, 133.033 218.300, 132.667 218.667 M 282.238 255.250 L 282.500 291.500 324.500 291.500 L 366.500 291.500 366.762 255.250 L 367.025 219 324.500 219 L 281.975 219 282.238 255.250 M 234.762 272.750 L 234.500 310.500 174.750 310.758 L 115 311.016 115 296.008 L 115 281 106.530 281 L 98.060 281 97.780 268.250 L 97.500 255.500 84.250 255.221 L 71 254.942 71 285.952 L 71 316.962 93.250 317.231 L 115.500 317.500 116 358 L 116.500 398.500 250.250 398.754 L 384 399.007 384 358.022 L 384 317.038 406.750 316.769 L 429.500 316.500 429.764 286.400 L 430.029 256.301 416.859 255.605 C 409.616 255.223, 403.325 255.275, 402.879 255.721 C 402.433 256.167, 401.940 261.925, 401.784 268.516 L 401.500 280.500 393.750 280.792 L 386 281.084 386 295.542 L 386 310 324.500 310 L 263 310 263 272.500 L 263 235 249.012 235 L 235.024 235 234.762 272.750 M 156.226 254.250 L 156.500 271.500 174 271.500 L 191.500 271.500 191.774 254.250 L 192.047 237 174 237 L 155.953 237 156.226 254.250 M 307.226 254.250 L 307.500 271.500 324.500 271.500 L 341.500 271.500 341.500 261 L 341.500 250.500 333.750 250.208 L 326 249.916 326 244.958 L 326 240 333.500 240 C 339.500 240, 341 239.700, 341 238.500 C 341 237.225, 338.442 237, 323.976 237 L 306.953 237 307.226 254.250 M 178 245.500 L 178 251 183.500 251 L 189 251 189 245.500 L 189 240 183.500 240 L 178 240 178 245.500 M 280.481 353.197 C 279.633 358.313, 278.441 360.772, 275.603 363.263 C 267.571 370.311, 252.824 369.179, 247.050 361.070 C 245.811 359.330, 244.559 356.127, 244.267 353.953 C 243.756 350.144, 243.600 350, 239.975 350 C 235.596 350, 234.649 351.488, 235.592 356.884 C 236.476 361.945, 240.421 368.457, 244.477 371.550 C 251.351 376.793, 262.871 378.415, 272.637 375.515 C 281.328 372.934, 288.881 363.104, 289.303 353.824 L 289.500 349.500 285.347 349.197 L 281.194 348.894 280.481 353.197" stroke="none" fill="#261f16" fill-rule="evenodd"/></svg>