<svg width="113" height="40" viewBox="0 0 113 40" fill="none" xmlns="http://www.w3.org/2000/svg">
<path d="M97.3912 17.9125C97.3912 14.8052 99.4449 12.6186 102.335 12.6186C105.224 12.6186 107.278 14.8439 107.278 18.0653C107.278 21.2867 105.224 23.3591 102.335 23.3591C99.4449 23.3591 97.3912 21.1339 97.3912 17.9125ZM92.143 17.9889C92.143 23.5506 95.9838 27.9625 101.041 27.9625C103.627 27.9625 105.528 26.8116 106.707 25.0476C106.936 24.7024 107.24 24.8175 107.278 25.1241L107.659 27.5795H112.222V8.40015H107.659L107.278 10.7782C107.24 11.0848 106.936 11.1999 106.707 10.8546C105.567 9.12839 103.704 8.01623 101.041 8.01623C96.0979 8.01623 92.143 12.2356 92.143 17.9898M71.4934 8.40015L77.5019 27.5795H85.7922L91.8008 8.40015H86.5909L82.1039 23.8968C81.9898 24.2807 81.6092 24.2807 81.4951 23.8968L77.0455 8.40015H71.4934ZM64.4964 27.5795H69.5922V8.40015H64.4964V27.5795ZM63.9643 3.06858C63.9643 4.90991 65.3334 6.13716 67.0447 6.13716C68.7561 6.13716 70.1252 4.87124 70.1252 3.06858C70.1252 1.26592 68.7561 0 67.0447 0C65.3334 0 63.9643 1.26592 63.9643 3.06858ZM51.301 20.7905C51.301 25.3938 53.9625 27.5804 58.298 27.5804H61.53V23.1308H58.7918C57.2329 23.1308 56.3959 22.3253 56.3959 20.599V13.311C56.3959 13.0422 56.5857 12.8507 56.8522 12.8507H61.53V8.4011H56.8522C56.5857 8.4011 56.3959 8.20961 56.3959 7.94076V1.15084L51.3001 2.762V20.7905H51.301ZM33.1997 17.9134C33.1997 14.8062 35.2534 12.6196 38.1431 12.6196C41.0328 12.6196 43.0864 14.8448 43.0864 18.0662C43.0864 21.2876 41.0328 23.3601 38.1431 23.3601C35.2534 23.3601 33.1997 21.1348 33.1997 17.9134ZM27.9515 17.9898C27.9515 23.5516 31.7923 27.9634 36.8497 27.9634C39.4355 27.9634 41.3367 26.8126 42.516 25.0486C42.7442 24.7033 43.0481 24.8184 43.0864 25.125L43.467 27.5804H48.0307V8.4011H43.467L43.0864 10.7792C43.0481 11.0857 42.7442 11.2008 42.516 10.8556C41.3751 9.12933 39.5122 8.01717 36.8497 8.01717C31.9064 8.01717 27.9515 12.2366 27.9515 17.9908M9.81188 27.504L23.5777 22.2488C23.9583 22.0951 24.0341 21.8649 24.0341 21.4433V13.3884C24.0341 13.0044 23.7675 12.8894 23.3879 13.0431L10.6863 17.9144C10.2299 18.1058 10.0017 17.6455 10.3057 17.3389L14.0707 13.4648C14.3372 13.1959 14.2231 12.8129 13.8042 12.8129H0.456367C0.189841 12.8129 0 13.0044 0 13.2733V18.0294C0 18.2983 0.189841 18.4898 0.456367 18.4898H8.70837C8.9749 18.4898 9.16474 18.6813 9.16474 18.9501V27.1588C9.16474 27.5427 9.43126 27.6578 9.81095 27.504" fill="#E0FF4B"/>
<path d="M51.301 33.7298C51.301 33.5675 51.3581 33.426 51.4731 33.3072C51.5881 33.1883 51.7293 33.1289 51.8967 33.1289C52.0641 33.1289 52.2072 33.1883 52.325 33.3072C52.4429 33.426 52.5018 33.5666 52.5018 33.7298C52.5018 33.893 52.4429 34.043 52.325 34.1618C52.2072 34.2807 52.0641 34.3401 51.8967 34.3401C51.7293 34.3401 51.5881 34.2807 51.4731 34.1618C51.3581 34.043 51.301 33.8986 51.301 33.7298ZM51.4123 39.9056V35.1089H52.3802V39.9056H51.4123Z" fill="#E0FF4B"/>
<path d="M53.478 39.9057V35.109H54.4459V36.2448L54.2972 36.0476C54.4581 35.7288 54.6891 35.4769 54.9902 35.292C55.2913 35.1071 55.6308 35.0156 56.0095 35.0156C56.3883 35.0156 56.7278 35.1034 57.0289 35.2788C57.33 35.4543 57.5657 35.6967 57.7359 36.0061C57.9061 36.3155 57.9921 36.6617 57.9921 37.0437V39.9067H57.0242V37.1937C57.0242 36.9494 56.9681 36.7287 56.8568 36.5315C56.7455 36.3344 56.5912 36.1816 56.3958 36.0712C56.2003 35.9618 55.9815 35.9071 55.7402 35.9071C55.4989 35.9071 55.2708 35.9618 55.0753 36.0712C54.8799 36.1806 54.7265 36.3344 54.6143 36.5315C54.503 36.7287 54.4469 36.9494 54.4469 37.1937V39.9067H53.479L53.478 39.9057Z" fill="#E0FF4B"/>
<path d="M60.2901 39.9061L58.345 35.1094H59.3868L61.2197 39.8778H60.5127L62.3457 35.1094H63.3229L61.3778 39.9061H60.2892H60.2901Z" fill="#E0FF4B"/>
<path d="M64.2634 37.8409V37.0712H67.6226L67.3991 37.3806C67.3869 37.0929 67.314 36.8344 67.1803 36.6061C67.0465 36.3778 66.867 36.1967 66.6407 36.0618C66.4143 35.9269 66.1618 35.86 65.8822 35.86C65.6026 35.86 65.338 35.9316 65.1051 36.076C64.8722 36.2203 64.6899 36.4184 64.5562 36.6721C64.4224 36.9259 64.356 37.206 64.356 37.5126C64.356 37.8192 64.4243 38.0975 64.5608 38.3484C64.6974 38.5984 64.8863 38.7955 65.1285 38.9398C65.3707 39.0842 65.6466 39.1559 65.957 39.1559C66.2675 39.1559 66.5462 39.0795 66.795 38.9257C67.0428 38.7729 67.2354 38.5644 67.372 38.3012L68.1818 38.6578C67.9705 39.0644 67.6684 39.3898 67.2747 39.6341C66.881 39.8784 66.4331 40.0001 65.9299 40.0001C65.4586 40.0001 65.0322 39.8907 64.6506 39.6719C64.2691 39.453 63.967 39.154 63.7435 38.7757C63.52 38.3974 63.4087 37.9767 63.4087 37.5136C63.4087 37.0504 63.5172 36.6278 63.7341 36.2467C63.9511 35.8647 64.2494 35.5647 64.6272 35.3458C65.006 35.127 65.424 35.0176 65.8832 35.0176C66.3797 35.0176 66.8258 35.144 67.2233 35.3977C67.6198 35.6515 67.9181 35.992 68.1164 36.4212C68.3146 36.8495 68.3829 37.324 68.3212 37.8428H64.2644L64.2634 37.8409Z" fill="#E0FF4B"/>
<path d="M69.9579 38.4417C70.0009 38.6917 70.1112 38.8832 70.288 39.0143C70.4647 39.1454 70.7051 39.2115 71.009 39.2115C71.3129 39.2115 71.5626 39.1492 71.7581 39.0237C71.9535 38.8983 72.0508 38.7417 72.0508 38.554C72.0508 38.3974 71.9994 38.2757 71.8974 38.188C71.7955 38.1002 71.6664 38.0333 71.5112 37.9861C71.356 37.9389 71.1446 37.8937 70.8781 37.8503C70.5059 37.788 70.2047 37.7173 69.9756 37.639C69.7465 37.5607 69.5473 37.4295 69.3799 37.2447C69.2125 37.0598 69.1284 36.8022 69.1284 36.4702C69.1284 36.1948 69.2088 35.9467 69.3706 35.724C69.5314 35.5024 69.7549 35.3288 70.0402 35.2033C70.3254 35.0779 70.648 35.0156 71.0081 35.0156C71.5411 35.0156 71.9807 35.1373 72.3248 35.3816C72.6689 35.6259 72.8756 35.957 72.9439 36.3768L71.9853 36.5834C71.9414 36.3334 71.8366 36.1419 71.6692 36.0108C71.5018 35.8797 71.2811 35.8137 71.009 35.8137C70.7369 35.8137 70.5255 35.8703 70.3572 35.9825C70.1898 36.0948 70.1056 36.2419 70.1056 36.424C70.1056 36.574 70.1552 36.6919 70.2543 36.7758C70.3534 36.8607 70.476 36.923 70.6218 36.9636C70.7677 37.0041 70.9735 37.0494 71.2409 37.0994C71.6131 37.1683 71.9171 37.2437 72.1527 37.3248C72.3884 37.406 72.5913 37.5427 72.7625 37.7333C72.9327 37.9238 73.0187 38.1917 73.0187 38.536C73.0187 38.8115 72.9299 39.0605 72.7531 39.2822C72.5764 39.5048 72.3341 39.6793 72.0274 39.8076C71.7207 39.9359 71.3803 40.0001 71.0081 40.0001C70.6359 40.0001 70.2992 39.9453 70.0168 39.8359C69.7343 39.7265 69.5052 39.568 69.3285 39.3624C69.1517 39.1558 69.0386 38.9181 68.989 38.6492L69.9569 38.4427L69.9579 38.4417Z" fill="#E0FF4B"/>
<path d="M73.3545 35.9731V35.1099H74.3785V33.5422L75.3371 33.2422V35.1099H76.6772V35.9731H75.3371V38.2068C75.3371 38.5011 75.4025 38.7134 75.5325 38.8454C75.6625 38.9765 75.8739 39.0426 76.1656 39.0426H76.6772V39.9057H76.1656C75.5578 39.9057 75.108 39.7614 74.8162 39.4737C74.5244 39.186 74.3785 38.7483 74.3785 38.1596V35.9731H73.3545Z" fill="#E0FF4B"/>
<path d="M77.4861 33.7298C77.4861 33.5675 77.5431 33.426 77.6582 33.3072C77.7732 33.1883 77.9144 33.1289 78.0818 33.1289C78.2492 33.1289 78.3923 33.1883 78.5101 33.3072C78.6279 33.426 78.6868 33.5666 78.6868 33.7298C78.6868 33.893 78.6279 34.043 78.5101 34.1618C78.3923 34.2807 78.2492 34.3401 78.0818 34.3401C77.9144 34.3401 77.7732 34.2807 77.6582 34.1618C77.5431 34.043 77.4861 33.8986 77.4861 33.7298ZM77.5974 39.9056V35.1089H78.5653V39.9056H77.5974Z" fill="#E0FF4B"/>
<path d="M79.6628 39.9047V35.108H80.6307V36.1871L80.4727 36.0089C80.6279 35.7089 80.8384 35.4674 81.1058 35.2863C81.3724 35.1052 81.6735 35.0137 82.0083 35.0137C82.3926 35.0137 82.7312 35.1212 83.0229 35.3372C83.3147 35.5532 83.5289 35.8457 83.6654 36.2145L83.3774 36.1956C83.5261 35.8325 83.7514 35.5448 84.0516 35.3325C84.3528 35.1203 84.695 35.0137 85.0803 35.0137C85.4656 35.0137 85.7724 35.1014 86.0576 35.2769C86.3428 35.4523 86.5663 35.6947 86.7272 36.0041C86.888 36.3135 86.9694 36.6597 86.9694 37.0418V39.9047H86.0108V37.1918C86.0108 36.9475 85.9631 36.7267 85.8668 36.5296C85.7705 36.3324 85.6386 36.1796 85.4712 36.0692C85.3038 35.9598 85.114 35.9051 84.9036 35.9051C84.6932 35.9051 84.5127 35.9598 84.3453 36.0692C84.1779 36.1787 84.046 36.3324 83.9497 36.5296C83.8534 36.7267 83.8057 36.9475 83.8057 37.1918V39.9047H82.8378V37.1918C82.8378 36.9475 82.7901 36.7267 82.6938 36.5296C82.5974 36.3324 82.4656 36.1796 82.2982 36.0692C82.1308 35.9598 81.9447 35.9051 81.7399 35.9051C81.5351 35.9051 81.3396 35.9598 81.1722 36.0692C81.0048 36.1787 80.873 36.3324 80.7766 36.5296C80.6803 36.7267 80.6326 36.9475 80.6326 37.1918V39.9047H79.6647H79.6628Z" fill="#E0FF4B"/>
<path d="M88.6987 37.8409V37.0712H92.0579L91.8344 37.3806C91.8222 37.0929 91.7493 36.8344 91.6156 36.6061C91.4818 36.3778 91.3023 36.1967 91.076 36.0618C90.8497 35.9269 90.5972 35.86 90.3175 35.86C90.0379 35.86 89.7733 35.9316 89.5404 36.076C89.3075 36.2203 89.1252 36.4184 88.9915 36.6721C88.8577 36.9259 88.7913 37.206 88.7913 37.5126C88.7913 37.8192 88.8596 38.0975 88.9961 38.3484C89.1327 38.5984 89.3216 38.7955 89.5638 38.9398C89.806 39.0842 90.0819 39.1559 90.3924 39.1559C90.7028 39.1559 90.9815 39.0795 91.2303 38.9257C91.4781 38.7729 91.6707 38.5644 91.8073 38.3012L92.6171 38.6578C92.4058 39.0644 92.1037 39.3898 91.71 39.6341C91.3163 39.8784 90.8684 40.0001 90.3652 40.0001C89.8939 40.0001 89.4675 39.8907 89.0859 39.6719C88.7044 39.453 88.4023 39.154 88.1788 38.7757C87.9553 38.3974 87.844 37.9767 87.844 37.5136C87.844 37.0504 87.9525 36.6278 88.1694 36.2467C88.3864 35.8647 88.6847 35.5647 89.0625 35.3458C89.4413 35.127 89.8593 35.0176 90.3185 35.0176C90.8151 35.0176 91.2611 35.144 91.6586 35.3977C92.0551 35.6515 92.3534 35.992 92.5517 36.4212C92.7499 36.8495 92.8182 37.324 92.7565 37.8428H88.6997L88.6987 37.8409Z" fill="#E0FF4B"/>
<path d="M93.7048 39.9057V35.109H94.6727V36.2448L94.5241 36.0476C94.6849 35.7288 94.9159 35.4769 95.217 35.292C95.5181 35.1071 95.8576 35.0156 96.2364 35.0156C96.6151 35.0156 96.9546 35.1034 97.2557 35.2788C97.5568 35.4543 97.7925 35.6967 97.9627 36.0061C98.1329 36.3155 98.2189 36.6617 98.2189 37.0437V39.9067H97.251V37.1937C97.251 36.9494 97.1949 36.7287 97.0836 36.5315C96.9723 36.3344 96.818 36.1816 96.6226 36.0712C96.4271 35.9618 96.2083 35.9071 95.967 35.9071C95.7258 35.9071 95.4976 35.9618 95.3021 36.0712C95.1067 36.1806 94.9533 36.3344 94.8411 36.5315C94.7298 36.7287 94.6737 36.9494 94.6737 37.1937V39.9067H93.7058L93.7048 39.9057Z" fill="#E0FF4B"/>
<path d="M98.6641 35.9731V35.1099H99.6881V33.5422L100.647 33.2422V35.1099H101.987V35.9731H100.647V38.2068C100.647 38.5011 100.712 38.7134 100.842 38.8454C100.972 38.9765 101.183 39.0426 101.475 39.0426H101.987V39.9057H101.475C100.867 39.9057 100.418 39.7614 100.126 39.4737C99.834 39.186 99.6881 38.7483 99.6881 38.1596V35.9731H98.6641Z" fill="#E0FF4B"/>
<path d="M102.517 37.5116C102.517 37.0485 102.628 36.6258 102.852 36.2448C103.075 35.8627 103.377 35.5627 103.759 35.3439C104.14 35.125 104.567 35.0156 105.038 35.0156C105.509 35.0156 105.936 35.125 106.317 35.3439C106.699 35.5627 107.001 35.8637 107.225 36.2448C107.448 36.6268 107.559 37.0485 107.559 37.5116C107.559 37.9748 107.448 38.3955 107.225 38.7738C107.001 39.152 106.699 39.4511 106.317 39.6699C105.936 39.8888 105.509 39.9982 105.038 39.9982C104.567 39.9982 104.14 39.8888 103.759 39.6699C103.377 39.4511 103.075 39.152 102.852 38.7738C102.628 38.3955 102.517 37.9748 102.517 37.5116ZM103.513 37.5116C103.513 37.8059 103.579 38.0767 103.713 38.3238C103.847 38.571 104.029 38.7634 104.262 38.9011C104.495 39.0388 104.754 39.1077 105.039 39.1077C105.324 39.1077 105.583 39.0388 105.816 38.9011C106.049 38.7634 106.231 38.571 106.365 38.3238C106.499 38.0767 106.565 37.8059 106.565 37.5116C106.565 37.2173 106.499 36.939 106.365 36.6947C106.231 36.4504 106.049 36.2598 105.816 36.1221C105.583 35.9844 105.324 35.9155 105.039 35.9155C104.754 35.9155 104.495 35.9844 104.262 36.1221C104.029 36.2598 103.847 36.4504 103.713 36.6947C103.579 36.939 103.513 37.2107 103.513 37.5116Z" fill="#E0FF4B"/>
<path d="M109.16 38.4417C109.204 38.6917 109.314 38.8832 109.491 39.0143C109.667 39.1454 109.908 39.2115 110.212 39.2115C110.516 39.2115 110.765 39.1492 110.961 39.0237C111.156 38.8983 111.253 38.7417 111.253 38.554C111.253 38.3974 111.202 38.2757 111.1 38.188C110.998 38.1002 110.869 38.0333 110.714 37.9861C110.559 37.9389 110.347 37.8937 110.081 37.8503C109.709 37.788 109.407 37.7173 109.178 37.639C108.949 37.5607 108.75 37.4295 108.583 37.2447C108.415 37.0598 108.331 36.8022 108.331 36.4702C108.331 36.1948 108.411 35.9467 108.573 35.724C108.734 35.5024 108.958 35.3288 109.243 35.2033C109.528 35.0779 109.851 35.0156 110.211 35.0156C110.744 35.0156 111.183 35.1373 111.527 35.3816C111.872 35.6259 112.078 35.957 112.147 36.3768L111.188 36.5834C111.144 36.3334 111.039 36.1419 110.872 36.0108C110.704 35.8797 110.484 35.8137 110.212 35.8137C109.939 35.8137 109.728 35.8703 109.56 35.9825C109.392 36.0948 109.308 36.2419 109.308 36.424C109.308 36.574 109.358 36.6919 109.457 36.7758C109.556 36.8607 109.679 36.923 109.824 36.9636C109.97 37.0041 110.176 37.0494 110.444 37.0994C110.816 37.1683 111.12 37.2437 111.355 37.3248C111.591 37.406 111.794 37.5427 111.965 37.7333C112.135 37.9238 112.221 38.1917 112.221 38.536C112.221 38.8115 112.132 39.0605 111.956 39.2822C111.779 39.5048 111.537 39.6793 111.23 39.8076C110.923 39.9359 110.583 40.0001 110.211 40.0001C109.838 40.0001 109.502 39.9453 109.219 39.8359C108.937 39.7265 108.708 39.568 108.531 39.3624C108.354 39.1558 108.241 38.9181 108.192 38.6492L109.16 38.4427L109.16 38.4417Z" fill="#E0FF4B"/>
</svg>
